<svg xmlns="http://www.w3.org/2000/svg" viewBox="0 0 250 250">
    <path d="m241.1 25.69c-1.27-9.56-7.19-11.71-12.43-10.95-14.9 2.38-28.47 23.87-37.45 51.6-14.95-3.29-34.03-5.43-56.28-5.85-2.69-0.08-5.45-0.14-8.28-0.16-1.65-0.02-3.32-0.03-5-0.03-1.12 0-2.23 0.01-3.34 0.02-3.15 0.03-6.25 0.11-9.28 0.24-15.47 0.6-29.17 1.73-41.04 3.76-4.06 0.69-7.92 1.54-11.55 2.52-8.25-26.37-21.77-49.78-36.18-52.1-6.3-1-11.1 2.38-12.22 10.95-1.98 15.29 9.63 32.43 23.83 47.22 0.64 0.68 0.77 0.87 1.46 1.56-12.76 5.25-22.16 29.51-22.16 76.51 0 31.93 5.89 64.11 19.59 73.8 2.04 1.46 4.75 2.74 8.06 3.87-0.65 2.91-2.96 10.23 5.24 11.66 6.96 1.22 11.27-5.94 11.7-7.62 18.51 3.59 41.95 5.19 62.8 4.82 29.18-0.3 67.84-3.65 88.45-8.56 3.05-0.65 7.69-1.84 10.83-3.15 14.07-5.79 23.62-32.68 23.62-74.82 0-32.89-7.8-67.85-23.89-78.07-0.96-0.59-2.03-1.13-3.18-1.64 13.93-14.35 28.9-29.31 26.7-45.58z" fill="#FFC600" stroke="#FDEE90" strokeMiterlimit="10" strokeWidth=".75" />
    <path d="m38.98 226.6c6.08 2.05 10.03 2.75 15.73 4.07-2.65 5.24-6.9 10.55-13.73 9.18-7.33-1.53-4.51-10.38-4.04-12.39l2.04-0.86z" fill="#333" />
    <path d="m196.4 231.3c5.51-1.23 12.51-2.6 18.48-4.43 0.33 5.18 1.53 11.97-6.14 13.35-6.83 1.27-10.53-5.55-12.34-8.92z" fill="#333" />
    <path d="m186.3 88.32c-13.36-9.56-67.19-10.71-67.19-10.71s-48.16 0.58-69.11 7.04c-11.37 2.86-16.89 9.57-19.75 44.06-2.15 28.38 0.55 67.47 11.22 80.15 6.44 4.8 10.8 6.06 28.26 7.76 14.37 1.7 29.09 2.99 46.41 2.99 13.82 0 36.58-1.79 52.07-4.88 11.16-2.38 18.69-3.65 23.5-14.31 8.52-18.26 11.89-100-5.41-112.1z" fill="#F09100" />
    <path d="m175.8 95.14c-12.11-6.82-47.06-7.95-59.86-7.95-14.95 0-42.57 0.57-59.89 7.39-8.52 2.86-12.3 9.68-15.16 34.13-2.76 22.04-1.05 49.25 4.87 64.2 3.9 7.95 8.7 10.21 21.5 12.97 12.11 2.27 29.78 4.06 45.28 4.06 14.95 0 35.9-1.15 52.63-5.25 10.67-2.38 15.47-5.24 20.27-18.03 6.83-19.41 7.41-82.55-9.64-91.52z" fill="#6B6B6B" />
    <path d="m215.6 124.6c6.54 0.67 9.65-4.57 9.47-9-0.25-5.67-4.99-8.83-9.47-8.6-5.8 0.28-8.53 5.16-8.53 9.3 0 4.8 3.85 7.8 8.53 8.3z" fill="#515151" />
    <path d="m215.6 155.2c7.27 0.56 11.07-5.62 10.84-10.06-0.33-6.79-6.1-11.12-10.84-10.79-6.72 0.45-9.83 6.64-9.83 10.6 0 5.9 4.48 9.81 9.83 10.25z" fill="#333" />
    <path d="m204.1 166.2h24.51c0.87 0 1.57 0.49 1.57 1.09v0.32c0 0.61-0.7 1.1-1.57 1.1h-24.51c-0.88 0-1.58-0.49-1.58-1.1v-0.32c0-0.6 0.7-1.09 1.58-1.09z" fill="#333" />
    <path d="m204.1 171.2h24.51c0.87 0 1.57 0.49 1.57 1.1v0.32c0 0.6-0.7 1.1-1.57 1.1h-24.51c-0.88 0-1.58-0.5-1.58-1.1v-0.32c0-0.61 0.7-1.1 1.58-1.1z" fill="#333" />
    <path d="m204.1 176.1h24.51c0.87 0 1.57 0.49 1.57 1.1v0.32c0 0.6-0.7 1.1-1.57 1.1h-24.51c-0.88 0-1.58-0.5-1.58-1.1v-0.32c0-0.61 0.7-1.1 1.58-1.1z" fill="#333" />
    <path d="m204.1 181.1h24.51c0.87 0 1.57 0.49 1.57 1.1v0.32c0 0.6-0.7 1.1-1.57 1.1h-24.51c-0.88 0-1.58-0.5-1.58-1.1v-0.32c0-0.61 0.7-1.1 1.58-1.1z" fill="#333" />
    <path d="m204.1 186h24.51c0.87 0 1.57 0.49 1.57 1.1v0.32c0 0.6-0.7 1.09-1.57 1.09h-24.51c-0.88 0-1.58-0.49-1.58-1.09v-0.32c0-0.61 0.7-1.1 1.58-1.1z" fill="#333" />
    <path d="m204.1 194h24.51c0.87 0 1.57 0.49 1.57 1.09v0.33c0 0.6-0.7 1.09-1.57 1.09h-24.51c-0.88 0-1.58-0.49-1.58-1.09v-0.33c0-0.6 0.7-1.09 1.58-1.09z" fill="#333" />
    <path d="m197.5 67.71c4.67 0.87 7.54 1.77 10.62 2.36 9.09-7.39 20.97-23.46 20.11-32.43-0.59-4.43-3.45-6.16-6.82-5.29-10.42 2.86-18.95 21.12-23.91 35.36z" fill="#616161" />
    <path d="m49.42 67.71c-4.67 0.87-6.38 1.77-10.05 2.94-9.68-8.55-21.29-22.91-20.7-32.47 0.58-4.97 3.44-6.7 6.81-5.83 10.41 2.86 18.98 20.53 23.94 35.36z" fill="#616161" />
    <path d="m155.6 9.74c-3.68 0-5.84 3.87-4.56 6.62l-24.51 31.14c-2.37-0.74-3.8-0.89-6.17-0.89-2.7 0-4.6 0.24-6.36 1.01l-24.24-32.88c1.98-2.86-0.57-7.03-4.11-6.8-3.89 0.12-5.44 4.17-4.17 6.92 1.28 2.86 4.14 2.86 6.39 2.15l21.54 32.4c-5.45 2.75-8.15 7.43-9.26 11.35 6.71-0.38 13.65-0.59 20.89-0.53 5.83 0.05 11.5 0.26 19.73 0.65-1.98-6-5.6-9.41-9.03-11.47l21.66-32.29c2.58 0.97 4.84 0.12 5.96-1.91 1.98-3.27-0.57-5.73-3.76-5.47z" fill="#333" />
    <path d="m136.8 144.9-32.96-19.86c-3.37-2.03-6.36 0.25-6.36 3.65v40.48c0 3.75 3.11 4.8 5.81 2.92l33.57-20.1c3.37-2.14 2.78-5.35-0.06-7.09z" fill="#fff" />
</svg>
